<mxfile host="app.diagrams.net" modified="2023-12-18T13:54:39.474Z" agent="Mozilla/5.0 (Windows NT 10.0; Win64; x64) AppleWebKit/537.36 (KHTML, like Gecko) Chrome/120.0.0.0 Safari/537.36" etag="WZuEemsiGRCGfUIk8akj" version="22.1.11" type="github">
  <diagram name="Page-1" id="Y4ryhkpG_AHfO9X048Ey">
    <mxGraphModel dx="866" dy="454" grid="1" gridSize="10" guides="1" tooltips="1" connect="1" arrows="1" fold="1" page="1" pageScale="1" pageWidth="850" pageHeight="1100" math="0" shadow="0">
      <root>
        <mxCell id="0" />
        <mxCell id="1" parent="0" />
        <mxCell id="lAhAGREo4O89ChrYNIZD-1" value="&lt;font style=&quot;font-size: 15px;&quot;&gt;Begin&lt;/font&gt;" style="strokeWidth=2;html=1;shape=mxgraph.flowchart.terminator;whiteSpace=wrap;" vertex="1" parent="1">
          <mxGeometry x="70" y="80" width="110" height="60" as="geometry" />
        </mxCell>
      </root>
    </mxGraphModel>
  </diagram>
</mxfile>
